<svg xmlns="http://www.w3.org/2000/svg" xml:space="preserve" id="Layer_1" x="0" y="0" style="enable-background:new 0 0 15258.24 4793.51" version="1.1" viewBox="0 0 15258.24 4793.51"><style>.st0{fill:#fff}.st1{fill:#1f3c58}.st2{fill:#a8843a}</style><path d="M14475.47 4682.32H782.77c-385.58 0-698.15-312.57-698.15-698.15V809.34c0-385.58 312.57-698.15 698.15-698.15h13692.7c385.58 0 698.15 312.57 698.15 698.15v3174.83c0 385.58-312.58 698.15-698.15 698.15z" class="st0"/><path d="M5784.54 3666.15v-293.58c42.65 0 84.23 1.64 125.63-.35 79.81-3.84 158.96-13.47 235.06-39.58 137.2-47.08 214.45-153.75 212.24-295.82-8.35 0-16.8.12-25.25-.02-75.38-1.23-150.89-.25-226.12-4.35-89.09-4.86-172.12-31.7-247.73-80.19-107.86-69.18-163.76-171.49-182.54-294.63-16.76-109.87-9.88-218.86 28.52-324.62 75.58-208.2 280.28-339.58 501.13-324.78 132.33 8.87 244.75 54.63 327.82 161.12 53.41 68.47 84.25 147.61 96.82 232.53 9.93 67.1 13.73 135.23 17.55 203.06 2.59 45.91.49 92.08.49 138.73 5.75 1.11 9.93 2.63 14.09 2.61 126.68-.58 253.39.17 380-3.04 31.98-.81 64.85-11.19 95.18-22.76 51.87-19.79 69.68-63.36 69.71-115.92.08-116.44.04-232.89.04-349.33v-27.32h289.05v24.32c0 113.51 2.63 227.11-.79 340.52-3 99.47 78.4 147.21 143.98 151.2 26.29 1.6 52.67 2.5 79 2.41 146.46-.53 292.93-.37 439.36-2.77 61.55-1.01 122.58-10.47 179.96-34.9 52.88-22.51 93.89-56.63 106.84-116.18 8.22-37.79.08-74.31-18.31-105.98-44.38-76.41-87.25-154.53-139.9-225.12-99.75-133.74-206.14-262.53-308.98-394-6.54-8.36-10.46-22.82-8.52-33.1 12.93-68.22 27.37-136.16 42.56-203.92 1.85-8.27 9.54-18.09 17.16-21.8 329.38-160.45 659.05-320.3 988.7-480.19 3.79-1.84 7.78-3.27 13.46-5.64 39.49 88.2 78.54 175.42 118.64 264.97-296.5 137.16-592.13 273.91-888.95 411.22 2.62 4.76 3.94 8.03 5.99 10.75 178.89 237.37 356.82 475.47 537.59 711.4 38.43 50.15 84.42 95.53 131.88 137.5 69.42 61.39 153.13 88.67 246.44 88.13 161.84-.93 323.78-3.41 485.53.68 145.66 3.69 193.33-92.87 183.14-206.34-11.61-129.29-39.8-255.59-70.11-381.48-1.69-7.03-3.19-14.11-5.34-23.65 90.7-27.45 180.57-54.64 273.53-82.77 10.4 45.25 22.8 88.79 30.15 133.17 18.48 111.76 38.4 223.49 50.75 335.99 12.16 110.8-6.79 217.92-68.56 313.53-87.11 134.82-215.94 196.89-372.43 200.1-176.42 3.61-352.98 1.32-529.47.7-174.67-.62-324.92-59.52-444.73-189.53-22.3-24.2-45.38-47.67-68.15-71.43-.35-.37-1.3-.16-1.97-.23-.68.26-1.79.33-2 .8-57.97 129.05-169.51 188.27-296.57 226.6-82.62 24.92-167.76 33.75-253.68 34.12-142.07.61-284.16.65-426.22-.46-85.82-.67-169.19-15.06-245.19-57.72-24.04-13.49-45.99-30.68-70.49-47.25-52.82 42.94-113.68 73.47-181.46 85.57-56.67 10.12-114.46 17.27-171.94 18.83-107.58 2.92-215.29.84-322.94.84h-26.48c-2.25 25.75-4.03 50.23-6.58 74.64-27.84 266.82-185.33 423.7-430.8 503.43-137.24 44.6-279.9 51.11-425.79 51.28zm574.57-920.95c0-9.33.06-15.83-.01-22.33-.72-62.13 1.17-124.44-3.15-186.32-2.72-38.85-10.89-78.37-23.45-115.25-26.71-78.4-85.38-120.92-161.08-123.15-90.18-2.65-165.18 38.46-194.28 114.72-15.06 39.47-22.8 83.26-25.45 125.63-6.28 100.64 49.07 172.43 146.79 197.13 19 4.8 38.76 8.82 58.24 9.15 66.35 1.11 132.73.42 202.39.42z" class="st1"/><path d="M7072.34 1686.23c71.54-68.98 142.04-136.96 210.43-202.9 66.36 66.43 136.92 137.05 205.58 205.78-66.48 66.48-136.63 136.64-203.23 203.25-68.77-66.62-140.15-135.78-212.78-206.13zM9928.77 1425.67c67.29 67.6 132.71 133.33 196.68 197.6-63.81 63.65-128.9 128.59-191.42 190.95-63.37-61.34-129.35-125.21-196.59-190.29 64.43-66.76 127.84-132.47 191.33-198.26zM9244.54 1626.56c65.79-68.59 129-134.48 190.92-199.04l199.05 199.02c-64.1 62.87-129.73 127.25-193.27 189.57-63.27-60.98-129.03-124.34-196.7-189.55z" class="st1"/><path d="M2025.34 2766.38c-9.98-12.37-15.85-20.25-22.33-27.59-82.5-93.43-118.71-203.05-105.46-326.14 14.55-135.05 83.46-240.1 193.87-317.55 170.56-119.64 402.13-125.47 565.48-12.93 114.72 79.04 175.27 190.9 190.06 328.89 12.38 115.41-12.69 220.65-80.98 315.09-3.29 4.55-5.52 9.87-10.02 18.06 15.98 1.82 29.41 4.66 42.84 4.68 219.66.33 439.33.93 658.99.07 102.59-.4 166.92-66.44 163.51-175.58-2.24-71.77-15.07-143.56-27.51-214.57-12.07-68.91-29.74-136.83-44.79-205.23-1.07-4.85-.83-9.99-1.32-16.74 88.95-26.83 177.33-53.49 269.6-81.31 15.99 78.36 32.29 153.08 46.31 228.22 19.96 107.01 36.39 214.26 33.55 323.97-5.22 202.3-145.52 374.31-343.28 414.66-35.53 7.25-72.47 10.61-108.76 10.68-227.71.4-455.45 1-683.13-1.87-122.8-1.54-244.67-15.98-364.17-46.71-11.89-3.06-25.67-1.39-38.11.77-78.26 13.61-155.88 32.72-234.66 41.02-121.97 12.86-244.59 22.63-367.14 26.12-135.99 3.88-272.23.14-408.34-2.1-64.28-1.05-128.6-5.02-192.72-9.99-90.91-7.05-182.12-12.81-270.9-36.22-159.16-41.97-252.95-147.81-294.11-303.52-25.4-96.06-19.14-193.17.95-288.99 16.3-77.76 38.44-154.28 57.24-231.53 4.17-17.13 11.6-20.01 27.81-14.68 76.31 25.1 152.81 49.67 229.61 73.22 16.57 5.08 19.2 10.88 15.11 27.82-21.21 87.87-43.55 175.66-59.15 264.58-6.21 35.38-1.71 75.16 7.82 110.24 18.33 67.42 71.75 94.43 137.5 99.38 144.91 10.9 289.74 24.74 434.87 30.29 151.32 5.78 302.96 3.87 454.46 3.89 40.49.01 80.97-5.19 127.3-8.4zm364.48-477.28c-43.72-.91-79.99 9.8-113.8 28.07-110.68 59.83-131.63 165.34-72.94 258.61 39.45 62.69 103.72 92.3 170.38 116.71 5.43 1.99 13.65 1.06 18.82-1.74 38.39-20.83 79.46-38.41 113.73-64.75 60.14-46.23 81.81-112.51 68.55-185.66-15.13-83.46-104.56-151.43-184.74-151.24zM5108.49 1873.57c0-166.18.34-332.37-.43-498.55-.1-20.62 4.8-27.81 26.62-27.45 79.04 1.29 158.13.94 237.18.16 17.12-.17 23.01 4.71 22.98 22.31-.43 306.74.91 613.49-.96 920.23-.69 113.12-8.57 225.82-37.33 336.64-54.75 210.95-194.33 329.52-400.73 378.8-85.78 20.48-172.94 27.73-260.85 27.79-161.79.11-323.58-.3-485.37.46-21.4.1-29.42-4.85-28.99-27.95 1.43-76.84 1.34-153.74.04-230.59-.37-21.93 7.12-26.68 27.6-26.58 158.13.75 316.3 2.48 474.37-.54 68.98-1.32 138.96-7.26 206.37-21.28 123.07-25.6 192.79-106.18 205.6-230.86 7.6-73.99 12.13-148.52 13.3-222.89 2.1-133.2.6-266.46.6-399.7z" class="st2"/><path d="M4462.33 2548.54c-40.27 0-80.54-.37-120.8.21-13.29.19-19.86-3.04-20.76-17.92-3.36-55.4-8.09-110.71-11.95-166.08-5.89-84.53-11.59-169.08-17.17-253.63-3.28-49.58-6.02-99.19-9.28-148.77-5.57-84.56-11.46-169.09-17-253.65-3.34-51.04-6.23-102.1-9.4-153.15-2.9-46.67-5.58-93.35-9.02-139.98-1.24-16.79 4.79-22.44 21.96-24.21 80.56-8.31 161.02-17.71 241.32-28.2 15.74-2.06 18.73 2.11 19.59 16.25 6.98 115.22 14.56 230.41 21.99 345.61 7.34 113.74 14.72 227.47 22.1 341.21 7.28 112.27 14.55 224.55 21.88 336.82 2.71 41.55 5.16 83.12 8.61 124.61 1.4 16.82-5.19 21.53-21.25 21.18-40.27-.9-80.55-.3-120.82-.3zM2191.61 1535.27c71-68.94 140.07-135.99 207.02-201 65.89 65.65 135.54 135.05 203.96 203.23-66.45 66.29-135.09 134.76-199.99 199.5l-210.99-201.73zM3863.74 3475.61c-62.25 62.22-126.17 126.12-187.63 187.56-62.63-60.22-127.24-122.35-193.98-186.52 64.07-66.35 126.64-131.16 187.99-194.69 66.45 66.47 130.86 130.89 193.62 193.65zM3179.67 3670.75c-15.21-16.1-31.9-34.33-49.19-51.97-41.5-42.35-83.18-84.53-125.03-126.52-8.63-8.66-14.26-15.74-3.08-27.24 57.69-59.27 114.88-119.03 172.33-178.53 1.39-1.44 3.76-1.95 11.31-5.68 17.51 19.15 35.63 40.16 55.02 59.93 40.49 41.28 81.65 81.91 122.54 122.8 6.9 6.9 14.55 13.44 4.13 23.6-61.76 60.2-123.43 120.51-188.03 183.61z" class="st2"/><path d="M14149.11 536.77c29.72 4.86 59.69 8.58 89.13 14.78 225.95 47.56 407.46 243.18 437.77 472.14 4.19 31.66 6.47 63.81 6.52 95.74.47 323.52.2 647.05.57 970.57.02 13.8-3.94 22.13-15.5 30.33-242.13 171.79-490.92 332.82-754.82 469.62-284.77 147.62-581.02 264.85-894 337.79-158.48 36.94-318.77 61.81-481.12 73.99-156.61 11.75-313.22 11.74-469.57-1.15-440.09-36.26-864.72-134.69-1267.15-320.32-22.59-10.42-44.28-22.83-66.92-33.14-11.45-5.21-14.64-12.3-14.62-24.55.36-260.01.27-520.01.27-780.02 0-244.57-1.1-489.15.36-733.71 1.1-183.13 73.98-333.65 216.63-448.66 87.64-70.66 188.8-110.11 301.21-120.05 5.22-.46 10.33-2.22 15.49-3.37 965.25.01 1930.5.01 2895.75.01z" class="st1"/><path d="M11646.02 2145.79c19.15-1.43 33.72-.83 47.43-3.96 18.97-4.34 38.18-9.58 55.73-17.78 64.94-30.33 130.59-59.52 193.57-93.6 515.01-278.72 1061.71-473.73 1628.35-615.11 181.54-45.3 365.27-81.84 547.78-123.32 30.99-7.04 62.63-15.29 90.92-29.19 46.65-22.92 55.3-70.84 23.73-112.17-19.62-25.68-45.79-40.95-78.1-44.56-78.94-8.83-157.71-2.91-236.22 4.89-175.91 17.5-349.9 47.87-523.19 82.11a12190.142 12190.142 0 0 0-909.13 216.11c-216.92 60.44-432.19 126.1-639.96 213.91-95.69 40.44-189.28 85.08-273.54 146.88-37.59 27.57-70.85 59.07-94.84 99.94-48.18 82.07-23.71 241.05 110.66 268.29 20.22 4.09 41 5.51 56.81 7.56z" class="st0"/><path d="M11270.21 4256.73c-18.62-2.65-37.23-5.4-55.86-7.94-164.83-22.46-295.23-102.54-391.4-237.35-62-86.92-96.54-184.54-100.62-291.74-2.23-58.71-2.71-117.5-2.85-176.26-.37-152.04-.12-304.09-.12-456.14v-21.38c5.32 2.15 9.18 3.11 12.4 5.1 209.95 129.64 437.46 216.76 676.49 273.59 110.39 26.24 222.42 46.74 334.64 63.7 90.59 13.69 182.43 20.48 273.97 26.11 95.88 5.89 192.07 9.07 288.12 9.08 85.96.01 172.14-2.99 257.81-9.82 160.25-12.77 317.9-42.42 473.51-82.73 352.62-91.36 686.45-229.88 1006.73-402.12 219.99-118.3 430.23-251.79 627.31-405.58 3.12-2.44 6.61-4.4 12.5-8.29v19.62c0 375.36.63 750.73-.21 1126.09-.63 283.81-193.59 500.84-437.22 557.7-29.81 6.96-60.74 9.15-91.11 13.75-7.5 1.13-14.88 3.05-22.31 4.61h-2861.78z" class="st2"/><path d="M11408.2 3357.12c110.38 26.24 222.42 46.74 334.64 63.7 90.59 13.69 182.43 20.48 273.97 26.11 95.88 5.89 192.07 9.07 288.12 9.08 85.96.01 172.14-2.99 257.81-9.82 52.59-5.73 103.45-11.49 152.93-17.4 107.91-15.6 214.73-37.91 320.59-65.34 352.62-91.36 686.44-229.88 1006.73-402.12 219.98-118.3 430.23-251.79 627.31-405.58 3.12-2.44 6.61-4.4 12.49-8.28l.24-444.96c.01 13.8-3.94 22.13-15.5 30.33-242.13 171.79-490.92 332.82-754.82 469.62-284.78 147.62-581.02 264.85-894 337.79-158.49 36.94-318.77 61.81-481.12 73.99-156.61 11.75-313.22 11.74-469.57-1.15-440.09-36.26-864.72-134.69-1267.15-320.32-22.59-10.42-44.28-22.83-66.92-33.14-11.45-5.21-14.64-12.3-14.63-24.55l-.03 443.34c5.32 2.15 9.18 3.11 12.4 5.1 209.97 129.65 437.49 216.77 676.51 273.6z" class="st0"/></svg>