<svg xmlns:xlink="http://www.w3.org/1999/xlink" xmlns="http://www.w3.org/2000/svg" width="28" height="28" viewBox="0 0 28 28" fill="none">
<path d="M9.47701 3.47675C9.48975 2.38132 10.3814 1.5 11.4769 1.5H16.4766C17.5903 1.5 18.4894 2.40967 18.4765 3.52325L18.273 21.0233C18.2602 22.1187 17.3686 23 16.2731 23H11.2734C10.1597 23 9.26058 22.0903 9.27353 20.9768L9.47701 3.47675Z" fill="#EBEFFF"/>
<path fill-rule="evenodd" clip-rule="evenodd" d="M11.75 0.25C10.2312 0.25 9 1.48121 9 3V21.9767C8.42409 22.1309 8 22.6563 8 23.2809V26.0809C8 26.8265 8.60442 27.4309 9.35 27.4309H18.15C18.8956 27.4309 19.5 26.8265 19.5 26.0809V23.2809C19.5 22.6563 19.0759 22.1309 18.5 21.9767V3C18.5 1.48122 17.2688 0.25 15.75 0.25H11.75ZM17 3V21.9309H10.5V3C10.5 2.30964 11.0596 1.75 11.75 1.75H15.75C16.4404 1.75 17 2.30964 17 3ZM9.5 25.9309V23.4309H9.75H17.75H18V25.9309H9.5ZM13.75 6.7C14.1366 6.7 14.45 6.3866 14.45 6C14.45 5.6134 14.1366 5.3 13.75 5.3C13.3634 5.3 13.05 5.6134 13.05 6C13.05 6.3866 13.3634 6.7 13.75 6.7ZM13.75 8C14.8546 8 15.75 7.10457 15.75 6C15.75 4.89543 14.8546 4 13.75 4C12.6454 4 11.75 4.89543 11.75 6C11.75 7.10457 12.6454 8 13.75 8ZM14.45 12C14.45 12.3866 14.1366 12.7 13.75 12.7C13.3634 12.7 13.05 12.3866 13.05 12C13.05 11.6134 13.3634 11.3 13.75 11.3C14.1366 11.3 14.45 11.6134 14.45 12ZM15.75 12C15.75 13.1046 14.8546 14 13.75 14C12.6454 14 11.75 13.1046 11.75 12C11.75 10.8954 12.6454 10 13.75 10C14.8546 10 15.75 10.8954 15.75 12ZM14.45 18C14.45 18.3866 14.1366 18.7 13.75 18.7C13.3634 18.7 13.05 18.3866 13.05 18C13.05 17.6134 13.3634 17.3 13.75 17.3C14.1366 17.3 14.45 17.6134 14.45 18ZM15.75 18C15.75 19.1046 14.8546 20 13.75 20C12.6454 20 11.75 19.1046 11.75 18C11.75 16.8954 12.6454 16 13.75 16C14.8546 16 15.75 16.8954 15.75 18Z" fill="#7A88B9"/>
</svg>