<svg xmlns:xlink="http://www.w3.org/1999/xlink" xmlns="http://www.w3.org/2000/svg" width="28" height="28" viewBox="0 0 28 28" fill="none">
<path d="M20.5 3.5L13.5 3L10 3.5L7.5 4L5.5 8L5 16L5.5 21.5L8.5 24.5L17.5 25L21 24.5L23.5 20.5L23 16.5L21.5 14.5L21 11.5L23.5 10C23.9 5.6 21.6667 3.83333 20.5 3.5Z" fill="#F9E3E7"/>
<path d="M18.9999 23.9859C19.0062 24.5443 18.5026 25 17.8792 25H11.1357C10.5196 25 10.019 24.5546 10.0149 24.0027L10 22.008C10 20.9036 10.9975 20 12.2416 20H16.7361C17.969 20 18.9665 20.8936 18.9778 21.998L18.9999 23.9859Z" fill="white"/>
<path d="M18.8478 25.2943C18.4093 25.2943 18.0457 24.9413 18.0457 24.5029L18.0136 22.3052C18.0136 21.5673 17.404 20.9791 16.6768 20.9791H12.399C12.0461 20.9791 11.7038 21.1181 11.4472 21.3748C11.2012 21.6208 11.0622 21.963 11.0622 22.3159L11.0729 24.4922C11.0729 24.9306 10.72 25.2943 10.2708 25.2943C9.83231 25.2943 9.4687 24.9413 9.4687 24.4922L9.45801 22.3159C9.45801 21.5245 9.75745 20.7866 10.3136 20.2305C10.8697 19.6744 11.6076 19.3643 12.399 19.3643H16.6875C18.3023 19.3643 19.6178 20.6797 19.6285 22.2838L19.6605 24.4708C19.6605 24.9306 19.2969 25.2943 18.8478 25.2943Z" fill="#EE6480"/>
<path d="M11.2867 7.09252H11.276C10.8268 7.08182 10.4739 6.71821 10.4846 6.26905L10.5381 3.17835C10.5488 2.73988 10.9017 2.38696 11.3402 2.38696H11.3509C11.7893 2.39766 12.1423 2.76127 12.1423 3.19974L12.0888 6.30113C12.0781 6.7396 11.7252 7.09252 11.2867 7.09252Z" fill="#EE6480"/>
<path d="M14.4954 7.09232H14.4847C14.0463 7.08163 13.6934 6.71802 13.6934 6.27954L13.7468 3.18885C13.7575 2.75038 14.1104 2.39746 14.5489 2.39746H14.5596C14.9981 2.40816 15.351 2.77177 15.351 3.21024L15.2975 6.30093C15.2868 6.73941 14.9339 7.09232 14.4954 7.09232Z" fill="#EE6480"/>
<path d="M17.7035 7.06034H17.6928C17.2543 7.04965 16.9014 6.68603 16.9014 6.24756L16.9548 3.15687C16.9655 2.7184 17.3185 2.36548 17.7569 2.36548H17.7676C18.2061 2.37617 18.559 2.73978 18.559 3.17826L18.5055 6.26895C18.4948 6.70742 18.1419 7.06034 17.7035 7.06034Z" fill="#EE6480"/>
<path d="M18.3024 25.3266H10.8163C6.84866 25.3266 4.66699 23.1449 4.66699 19.1772V8.4828C4.66699 4.51516 6.84866 2.3335 10.8163 2.3335H18.3024C22.2059 2.3335 24.4517 4.57933 24.4517 8.4828V9.55225C24.4517 10.5789 23.6069 11.4238 22.5802 11.4238C22.4305 11.4238 22.3128 11.5414 22.3128 11.6911V14.0118C22.3128 14.3647 22.4519 14.707 22.7085 14.9529L23.5962 15.8406C24.1523 16.3967 24.4624 17.1346 24.4624 17.9153V19.1772C24.4517 23.0807 22.2059 25.3266 18.3024 25.3266ZM10.8163 3.93766C7.75769 3.93766 6.27116 5.42419 6.27116 8.4828V19.1772C6.27116 22.2359 7.75769 23.7224 10.8163 23.7224H18.3024C21.3182 23.7224 22.8475 22.1931 22.8475 19.1772V17.926C22.8475 17.5731 22.7085 17.2309 22.4519 16.9849L21.5642 16.0972C21.0081 15.5411 20.698 14.8032 20.698 14.0225V11.6911C20.698 10.6645 21.5428 9.81961 22.5695 9.81961C22.7192 9.81961 22.8369 9.70197 22.8369 9.55225V8.4828C22.8369 5.46697 21.3075 3.93766 18.2917 3.93766H10.8163Z" fill="#EE6480"/>
</svg>