<svg xmlns:xlink="http://www.w3.org/1999/xlink" xmlns="http://www.w3.org/2000/svg" width="28" height="28" viewBox="0 0 28 28" fill="none">
<circle cx="13.5" cy="19.5" r="1.5" fill="white"/>
<path d="M5.70898 6.25C5.70898 4.59315 7.05213 3.25 8.70898 3.25H18.709C20.3658 3.25 21.709 4.59315 21.709 6.25V21.25C21.709 22.9069 20.3658 24.25 18.709 24.25H8.70898C7.05213 24.25 5.70898 22.9069 5.70898 21.25V6.25Z" fill="#DDF3FF"/>
<path d="M16.9081 25.125H10.9896C6.39583 25.125 5 23.7292 5 19.1354V7.98958C5 3.39583 6.39583 2 10.9896 2H16.9081C21.5019 2 22.8977 3.39583 22.8977 7.98958V19.1354C22.8977 23.7292 21.5019 25.125 16.9081 25.125ZM10.9896 3.5625C7.26042 3.5625 6.5625 4.27083 6.5625 7.98958V19.1354C6.5625 22.8542 7.26042 23.5625 10.9896 23.5625H16.9081C20.6373 23.5625 21.3352 22.8542 21.3352 19.1354V7.98958C21.3352 4.27083 20.6373 3.5625 16.9081 3.5625H10.9896Z" fill="#4894DD"/>
<path d="M16.0319 7.2085H11.8652C11.4382 7.2085 11.084 6.85433 11.084 6.42725C11.084 6.00016 11.4382 5.646 11.8652 5.646H16.0319C16.459 5.646 16.8132 6.00016 16.8132 6.42725C16.8132 6.85433 16.459 7.2085 16.0319 7.2085Z" fill="#4894DD"/>
<circle cx="14" cy="19" r="1" fill="#F8F8F8"/>
<path d="M13.9495 21.3854C12.6266 21.3854 11.5537 20.3125 11.5537 18.9896C11.5537 17.6667 12.6266 16.5938 13.9495 16.5938C15.2725 16.5938 16.3454 17.6667 16.3454 18.9896C16.3454 20.3125 15.2725 21.3854 13.9495 21.3854ZM13.9495 18.1458C13.4912 18.1458 13.1162 18.5208 13.1162 18.9792C13.1162 19.4375 13.4912 19.8125 13.9495 19.8125C14.4079 19.8125 14.7829 19.4375 14.7829 18.9792C14.7829 18.5208 14.4079 18.1458 13.9495 18.1458Z" fill="#4894DD"/>
</svg>