<svg xmlns:xlink="http://www.w3.org/1999/xlink" xmlns="http://www.w3.org/2000/svg" width="28" height="28" viewBox="0 0 28 28" fill="none">
<path d="M7 7C7 6.44772 7.44772 6 8 6H20C20.5523 6 21 6.44772 21 7V16C21 17.1046 20.1046 18 19 18H9C7.89543 18 7 17.1046 7 16V7Z" fill="#DDF3FF"/>
<path fill-rule="evenodd" clip-rule="evenodd" d="M14.4094 1C13.9599 1 13.5955 1.36436 13.5955 1.81383V5.34045H8.99984C7.34299 5.34045 5.99984 6.6836 5.99984 8.34045V14.4468C5.99984 17.2082 8.23842 19.4468 10.9998 19.4468H13.3658C13.3355 19.532 13.319 19.6236 13.3188 19.7192L13.3089 25.6822C13.3081 26.133 13.673 26.4991 14.1239 26.4999C14.5748 26.5006 14.9409 26.1357 14.9416 25.6849L14.9516 19.7219C14.9517 19.6254 14.9351 19.5328 14.9045 19.4468H17.2764C20.0378 19.4468 22.2764 17.2082 22.2764 14.4468V8.34045C22.2764 6.78029 21.0854 5.4983 19.563 5.35397V1.81383C19.563 1.36436 19.1987 1 18.7492 1C18.2998 1 17.9354 1.36436 17.9354 1.81383V5.34045H15.2232V1.81383C15.2232 1.36436 14.8588 1 14.4094 1ZM8.99984 6.84045H19.2764C20.1048 6.84045 20.7764 7.51203 20.7764 8.34045V14.4468C20.7764 16.3798 19.2094 17.9468 17.2764 17.9468H10.9998C9.06685 17.9468 7.49984 16.3798 7.49984 14.4468V8.34045C7.49984 7.51203 8.17141 6.84045 8.99984 6.84045Z" fill="#4894DD"/>
</svg>