<svg xmlns:xlink="http://www.w3.org/1999/xlink" xmlns="http://www.w3.org/2000/svg" width="28" height="28" viewBox="0 0 28 28" fill="none">
<path d="M21.9955 11.0547C20.096 11.0547 19.3193 9.69865 20.2639 8.03532C20.8096 7.07123 20.4843 5.84227 19.5292 5.29136L17.7136 4.24251C16.8846 3.74457 15.8141 4.04121 15.3208 4.87818L15.2054 5.07947C14.2609 6.7428 12.7076 6.7428 11.7526 5.07947L11.6372 4.87818C11.1649 4.04121 10.0945 3.74457 9.26537 4.24251L7.44977 5.29136C6.49475 5.84227 6.16941 7.08182 6.71514 8.04592C7.67016 9.69865 6.89355 11.0547 4.994 11.0547C3.90255 11.0547 3 11.9553 3 13.0677V14.9323C3 16.0341 3.89205 16.9453 4.994 16.9453C6.89355 16.9453 7.67016 18.3013 6.71514 19.9647C6.16941 20.9288 6.49475 22.1577 7.44977 22.7086L9.26537 23.7575C10.0945 24.2554 11.1649 23.9588 11.6582 23.1218L11.7736 22.9205C12.7181 21.2572 14.2714 21.2572 15.2264 22.9205L15.3418 23.1218C15.8351 23.9588 16.9055 24.2554 17.7346 23.7575L19.5502 22.7086C20.5052 22.1577 20.8306 20.9182 20.2849 19.9647C19.3298 18.3013 20.1064 16.9453 22.006 16.9453C23.0975 16.9453 24 16.0447 24 14.9323V13.0677C23.9895 11.9659 23.0975 11.0547 21.9955 11.0547ZM13.4948 17.4432C11.6162 17.4432 10.084 15.8964 10.084 14C10.084 12.1036 11.6162 10.5568 13.4948 10.5568C15.3733 10.5568 16.9055 12.1036 16.9055 14C16.9055 15.8964 15.3733 17.4432 13.4948 17.4432Z" fill="#FFF6DC"/>
<path d="M14.0104 17.9061C11.7967 17.9061 10 16.1094 10 13.8957C10 11.6819 11.7967 9.88525 14.0104 9.88525C16.2242 9.88525 18.0208 11.6819 18.0208 13.8957C18.0208 16.1094 16.2242 17.9061 14.0104 17.9061ZM14.0104 11.4894C12.6843 11.4894 11.6042 12.5696 11.6042 13.8957C11.6042 15.2218 12.6843 16.3019 14.0104 16.3019C15.3365 16.3019 16.4167 15.2218 16.4167 13.8957C16.4167 12.5696 15.3365 11.4894 14.0104 11.4894Z" fill="#EBBE37"/>
<path d="M17.415 24.9424C17.1904 24.9424 16.9658 24.9103 16.7413 24.8568C16.0782 24.675 15.5221 24.2579 15.1692 23.6697L15.0408 23.4558C14.4099 22.365 13.5436 22.365 12.9126 23.4558L12.795 23.659C12.4421 24.2579 11.886 24.6857 11.2229 24.8568C10.5492 25.0386 9.85403 24.9424 9.26583 24.5894L7.42639 23.5307C6.77403 23.1564 6.30347 22.5468 6.10028 21.8089C5.90778 21.071 6.00403 20.3117 6.37833 19.6593C6.68847 19.1139 6.77403 18.6219 6.59222 18.3118C6.41042 18.0017 5.95056 17.8199 5.31958 17.8199C3.75819 17.8199 2.48556 16.5472 2.48556 14.9858V13.1036C2.48556 11.5422 3.75819 10.2696 5.31958 10.2696C5.95056 10.2696 6.41042 10.0878 6.59222 9.77764C6.77403 9.4675 6.69917 8.97556 6.37833 8.43014C6.00403 7.77778 5.90778 7.00778 6.10028 6.28056C6.29278 5.54264 6.76333 4.93306 7.42639 4.55875L9.27653 3.5C10.485 2.78347 12.0785 3.20056 12.8057 4.43042L12.934 4.64431C13.565 5.73514 14.4313 5.73514 15.0622 4.64431L15.1799 4.44111C15.9071 3.20056 17.5006 2.78347 18.7197 3.51069L20.5592 4.56944C21.2115 4.94375 21.6821 5.55333 21.8853 6.29125C22.0778 7.02917 21.9815 7.78847 21.6072 8.44083C21.2971 8.98625 21.2115 9.47819 21.3933 9.78833C21.5751 10.0985 22.035 10.2803 22.666 10.2803C24.2274 10.2803 25.5 11.5529 25.5 13.1143V14.9965C25.5 16.5579 24.2274 17.8306 22.666 17.8306C22.035 17.8306 21.5751 18.0124 21.3933 18.3225C21.2115 18.6326 21.2864 19.1246 21.6072 19.67C21.9815 20.3224 22.0885 21.0924 21.8853 21.8196C21.6928 22.5575 21.2222 23.1671 20.5592 23.5414L18.709 24.6001C18.3026 24.8247 17.8642 24.9424 17.415 24.9424ZM13.9821 20.9854C14.9339 20.9854 15.8215 21.5843 16.4311 22.6431L16.5487 22.8462C16.6771 23.0708 16.891 23.2312 17.1476 23.2954C17.4043 23.3596 17.661 23.3275 17.8749 23.1992L19.725 22.1297C20.0031 21.9693 20.2169 21.7019 20.3025 21.3811C20.3881 21.0603 20.3453 20.7287 20.1849 20.4507C19.5753 19.4026 19.5004 18.3225 19.971 17.499C20.4415 16.6756 21.4147 16.205 22.6339 16.205C23.3183 16.205 23.8637 15.6596 23.8637 14.9751V13.0929C23.8637 12.4192 23.3183 11.8631 22.6339 11.8631C21.4147 11.8631 20.4415 11.3925 19.971 10.569C19.5004 9.74556 19.5753 8.66542 20.1849 7.61736C20.3453 7.33931 20.3881 7.00778 20.3025 6.68694C20.2169 6.36611 20.0137 6.10944 19.7357 5.93833L17.8856 4.87958C17.4257 4.60153 16.8161 4.76194 16.5381 5.2325L16.4204 5.43569C15.8108 6.49444 14.9232 7.09333 13.9714 7.09333C13.0196 7.09333 12.1319 6.49444 11.5224 5.43569L11.4047 5.22181C11.1374 4.77264 10.5385 4.61222 10.0786 4.87958L8.22847 5.94903C7.95042 6.10944 7.73653 6.37681 7.65097 6.69764C7.56542 7.01847 7.60819 7.35 7.76861 7.62806C8.37819 8.67611 8.45306 9.75625 7.9825 10.5797C7.51194 11.4032 6.53875 11.8737 5.31958 11.8737C4.63514 11.8737 4.08972 12.4192 4.08972 13.1036V14.9858C4.08972 15.6596 4.63514 16.2157 5.31958 16.2157C6.53875 16.2157 7.51194 16.6862 7.9825 17.5097C8.45306 18.3332 8.37819 19.4133 7.76861 20.4614C7.60819 20.7394 7.56542 21.071 7.65097 21.3918C7.73653 21.7126 7.93972 21.9693 8.21778 22.1404L10.0679 23.1992C10.2925 23.3382 10.5599 23.3703 10.8058 23.3061C11.0625 23.2419 11.2764 23.0708 11.4154 22.8462L11.5331 22.6431C12.1426 21.595 13.0303 20.9854 13.9821 20.9854Z" fill="#EBBE37"/>
</svg>