<svg xmlns:xlink="http://www.w3.org/1999/xlink" xmlns="http://www.w3.org/2000/svg" width="28" height="28" viewBox="0 0 28 28" fill="none">
<rect x="5" y="5" width="18" height="18" rx="4" fill="#EBEFFF"/>
<rect x="10" y="10" width="8" height="8" rx="2" fill="white"/>
<rect x="9" y="1" width="1.5" height="4" rx="0.75" fill="#7A88B9"/>
<rect x="9" y="23.0005" width="1.5" height="4" rx="0.75" fill="#7A88B9"/>
<path d="M17.5 1.75C17.5 1.33579 17.8358 1 18.25 1V1C18.6642 1 19 1.33579 19 1.75V4.25C19 4.66421 18.6642 5 18.25 5V5C17.8358 5 17.5 4.66421 17.5 4.25V1.75Z" fill="#7A88B9"/>
<path d="M17.5 23.7505C17.5 23.3363 17.8358 23.0005 18.25 23.0005V23.0005C18.6642 23.0005 19 23.3363 19 23.7505V26.2505C19 26.6647 18.6642 27.0005 18.25 27.0005V27.0005C17.8358 27.0005 17.5 26.6647 17.5 26.2505V23.7505Z" fill="#7A88B9"/>
<path d="M13.2546 1.74758C13.2547 1.33443 13.5898 0.999648 14.003 0.999817V0.999817C14.4161 0.999986 14.7509 1.33504 14.7507 1.74819L14.7497 4.25205C14.7495 4.6652 14.4145 4.99999 14.0013 4.99982V4.99982C13.5882 4.99965 13.2534 4.66459 13.2536 4.25144L13.2546 1.74758Z" fill="#7A88B9"/>
<path d="M13.2546 23.7481C13.2547 23.3349 13.5898 23.0001 14.003 23.0003V23.0003C14.4161 23.0005 14.7509 23.3355 14.7507 23.7487L14.7497 26.2525C14.7495 26.6657 14.4145 27.0005 14.0013 27.0003V27.0003C13.5882 27.0001 13.2534 26.6651 13.2536 26.2519L13.2546 23.7481Z" fill="#7A88B9"/>
<rect x="5.00098" y="9" width="1.5" height="4" rx="0.75" transform="rotate(90 5.00098 9)" fill="#7A88B9"/>
<path d="M26.251 17.5C26.6652 17.5 27.001 17.8358 27.001 18.25V18.25C27.001 18.6642 26.6652 19 26.251 19L23.751 19C23.3368 19 23.001 18.6642 23.001 18.25V18.25C23.001 17.8358 23.3368 17.5 23.751 17.5L26.251 17.5Z" fill="#7A88B9"/>
<path d="M4.25098 17.5C4.66519 17.5 5.00098 17.8358 5.00098 18.25V18.25C5.00098 18.6642 4.66519 19 4.25098 19L1.75098 19C1.33676 19 1.00098 18.6642 1.00098 18.25V18.25C1.00098 17.8358 1.33676 17.5 1.75098 17.5L4.25098 17.5Z" fill="#7A88B9"/>
<path d="M26.2529 13.2546C26.6661 13.2547 27.0008 13.5898 27.0007 14.003V14.003C27.0005 14.4161 26.6654 14.7509 26.2523 14.7507L23.7484 14.7497C23.3353 14.7495 23.0005 14.4145 23.0007 14.0013V14.0013C23.0008 13.5882 23.3359 13.2534 23.749 13.2536L26.2529 13.2546Z" fill="#7A88B9"/>
<path d="M4.25291 13.2546C4.66605 13.2547 5.00084 13.5898 5.00067 14.003V14.003C5.0005 14.4161 4.66544 14.7509 4.2523 14.7507L1.74844 14.7497C1.33529 14.7495 1.0005 14.4145 1.00067 14.0013V14.0013C1.00084 13.5882 1.3359 13.2534 1.74905 13.2536L4.25291 13.2546Z" fill="#7A88B9"/>
<rect x="4.75" y="4.75" width="18.5" height="18.5" rx="4.25" stroke="#7A88B9" stroke-width="1.5"/>
<rect x="9.75" y="9.75" width="8.5" height="8.5" rx="2.25" stroke="#7A88B9" stroke-width="1.5"/>
<rect x="27.0007" y="9.00006" width="1.5" height="4" rx="0.75" transform="rotate(90 27.0007 9.00006)" fill="#7A88B9"/>
</svg>