<svg xmlns:xlink="http://www.w3.org/1999/xlink" xmlns="http://www.w3.org/2000/svg" width="28" height="28" viewBox="0 0 28 28" fill="none">
<rect x="1.58008" y="15.0156" width="19" height="16.3188" rx="2" transform="rotate(-45 1.58008 15.0156)" fill="#D7F8F3"/>
<rect x="1.58008" y="15.0156" width="19" height="4.75926" rx="2" transform="rotate(-45 1.58008 15.0156)" fill="white"/>
<path d="M5.01379 19.2974C4.80004 19.2974 4.58629 19.2186 4.41754 19.0499C4.09129 18.7236 4.09129 18.1836 4.41754 17.8574L17.8612 4.41363C18.1875 4.08738 18.7275 4.08738 19.0537 4.41363C19.38 4.73988 19.38 5.27988 19.0537 5.60613L5.61004 19.0611C5.45254 19.2186 5.22754 19.2974 5.01379 19.2974Z" fill="#74C4BA"/>
<path d="M13.0802 21.9971C12.8664 21.9971 12.6527 21.9183 12.4839 21.7496C12.1577 21.4233 12.1577 20.8833 12.4839 20.5571L13.8339 19.2071C14.1602 18.8808 14.7002 18.8808 15.0264 19.2071C15.3527 19.5333 15.3527 20.0733 15.0264 20.3996L13.6764 21.7496C13.5189 21.9071 13.3052 21.9971 13.0802 21.9971Z" fill="#74C4BA"/>
<path d="M16.1085 18.9711C15.8948 18.9711 15.681 18.8923 15.5123 18.7236C15.186 18.3973 15.186 17.8573 15.5123 17.5311L18.201 14.8423C18.5273 14.5161 19.0673 14.5161 19.3935 14.8423C19.7198 15.1686 19.7198 15.7086 19.3935 16.0348L16.7048 18.7236C16.5473 18.8811 16.3223 18.9711 16.1085 18.9711Z" fill="#74C4BA"/>
<path d="M13.0825 26.1819C11.98 26.1819 10.8775 25.5069 9.53875 24.1681L4.015 18.6444C1.32625 15.9556 1.3375 14.2231 4.04875 11.5119L11.5187 4.04191C14.23 1.33066 15.9625 1.31941 18.6513 4.00816L24.175 9.53191C26.8638 12.2206 26.8525 13.9531 24.1413 16.6644L16.6713 24.1344C15.31 25.4956 14.1963 26.1819 13.0825 26.1819ZM15.1075 3.68191C14.5225 3.68191 13.78 4.16566 12.7113 5.23441L5.24125 12.7044C4.1725 13.7731 3.68875 14.5156 3.68875 15.0894C3.68875 15.6744 4.13875 16.3831 5.2075 17.4519L10.7312 22.9756C11.8 24.0444 12.4975 24.4944 13.0825 24.4944C13.0825 24.4944 13.0825 24.4944 13.0938 24.4944C13.6788 24.4944 14.41 24.0106 15.4788 22.9419L22.9488 15.4719C24.0175 14.4031 24.5013 13.6606 24.5013 13.0869C24.5013 12.5019 24.0513 11.7932 22.9825 10.7244L17.4588 5.20066C16.4013 4.13191 15.6925 3.68191 15.1075 3.68191Z" fill="#74C4BA"/>
<path d="M25.3437 26.1821H2.84375C2.3825 26.1821 2 25.7996 2 25.3384C2 24.8771 2.3825 24.4946 2.84375 24.4946H25.3437C25.805 24.4946 26.1875 24.8771 26.1875 25.3384C26.1875 25.7996 25.805 26.1821 25.3437 26.1821Z" fill="#74C4BA"/>
</svg>